<svg version="1.0" xmlns="http://www.w3.org/2000/svg" width="800.000000" height="800.000000" viewBox="0 0 800.000000 800.000000" preserveAspectRatio="xMidYMid meet">
  <metadata>
    <rdf:RDF xmlns:rdf="http://www.w3.org/1999/02/22-rdf-syntax-ns#" xmlns:rdfs="http://www.w3.org/2000/01/rdf-schema#" xmlns:dc="http://purl.org/dc/elements/1.1/">
      <rdf:Description dc:format="image/svg+xml" dc:Label="1" dc:ContentProducer="001191330110MACRLGPT8B00000" dc:ProduceID="389259102" dc:ReservedCode1="GF8omK3heJ9SPct2lWj54yvAski0YJ/ybOvfNu+lJBE=" dc:ContentPropagator="001191330110MACRLGPT8B00000" dc:PropagateID="389259102" dc:ReservedCode2="GF8omK3heJ9SPct2lWj54yvAski0YJ/ybOvfNu+lJBE="/>
    </rdf:RDF>
  </metadata>
  <g transform="translate(0.000000,800.000000) scale(0.100000,-0.100000)" fill="#000000" stroke="none">
    <path d="M2460 5913 c0 -5 397 -405 883 -891 l882 -882 57 57 58 58 -741 745 -740 745 438 5 438 5 3 83 3 82 -641 0 c-352 0 -640 -3 -640 -7z"/>
    <path d="M4142 5853 c-35 -38 -151 -157 -260 -265 l-197 -198 55 -55 c30 -30 59 -55 65 -55 6 0 113 106 239 235 l228 235 211 0 212 0 -200 -202 c-110 -112 -274 -278 -365 -370 l-165 -168 60 -60 60 -61 83 88 c46 48 190 196 320 328 211 214 465 476 561 578 l35 37 -440 0 -440 0 -62 -67z"/>
    <path d="M5215 3728 c-32 -17 -55 -51 -55 -81 -1 -93 98 -140 161 -78 48 49 38 125 -21 156 -34 18 -57 19 -85 3z"/>
    <path d="M3374 3431 c-11 -5 -32 -24 -46 -42 -46 -62 -349 -414 -358 -417 -5 -2 -90 93 -190 210 -101 117 -191 221 -202 231 -32 27 -92 23 -117 -9 -40 -50 -31 -70 102 -226 67 -80 156 -185 198 -234 41 -49 79 -95 83 -101 6 -11 -106 -150 -341 -420 -46 -54 -63 -81 -63 -102 0 -43 9 -60 42 -77 58 -30 75 -17 245 184 185 218 233 272 242 272 3 -1 92 -102 196 -225 157 -186 196 -227 227 -236 31 -10 41 -9 63 5 30 20 47 58 40 89 -3 12 -98 129 -211 261 l-204 239 45 53 c25 30 66 80 93 112 26 31 49 59 53 62 3 3 53 63 112 133 88 105 107 134 107 161 0 54 -65 98 -116 77z"/>
    <path d="M4153 3416 c-135 -31 -268 -128 -338 -248 -105 -178 -112 -441 -18 -638 144 -300 540 -393 810 -189 l53 40 0 -31 c0 -47 26 -99 55 -110 41 -15 54 -12 86 19 l29 29 0 542 0 541 -25 24 c-24 25 -65 32 -100 19 -22 -9 -45 -57 -45 -94 0 -16 -2 -30 -4 -30 -2 0 -33 20 -70 45 -37 24 -97 54 -134 66 -86 27 -217 33 -299 15z m264 -178 c58 -21 143 -92 179 -149 86 -138 87 -365 1 -512 -32 -53 -101 -118 -159 -148 -59 -31 -204 -39 -276 -15 -103 35 -200 132 -236 238 -37 110 -41 192 -14 313 50 231 281 356 505 273z"/>
    <path d="M5205 3395 l-25 -24 0 -540 c0 -297 3 -547 6 -556 8 -19 55 -45 84 -45 11 0 32 11 45 25 l25 24 0 548 c0 301 -4 553 -8 559 -26 39 -93 44 -127 9z"/>
  </g>
</svg>